HIERARCHY
ROOT pelvis
{
  OFFSET 0 100 0
  CHANNELS 6 Xposition Yposition Zposition Zrotation Xrotation Yrotation
  JOINT pelvis_right_femur
  {
    OFFSET -10.78128 -3.44521 -0.5502486
    CHANNELS 3 Zrotation Xrotation Yrotation
    JOINT right_femur_tibia
    {
      OFFSET -0.8047443 -44.0398 -0.1307829
      CHANNELS 3 Zrotation Xrotation Yrotation
      JOINT right_tibia_foot
      {
        OFFSET 3.006224 -47.83518 -5
        CHANNELS 3 Zrotation Xrotation Yrotation
        End Site
        {
          OFFSET 0 -5 15
        }
      }
    }
  }
  JOINT pelvis_left_femur
  {
    OFFSET 10.78128 -3.44521 -0.5502486
    CHANNELS 3 Zrotation Xrotation Yrotation
    JOINT left_femur_tibia
    {
      OFFSET 0.8047443 -44.0398 -0.1307829
      CHANNELS 3 Zrotation Xrotation Yrotation
      JOINT left_tibia_foot
      {
        OFFSET -4.370144 -48.10324 -4.275266
        CHANNELS 3 Zrotation Xrotation Yrotation
        End Site
        {
          OFFSET 0 -5 15
        }
      }
    }
  }
  JOINT pelvis_spine1
  {
    OFFSET 0 6.468898 -3.129235
    CHANNELS 3 Zrotation Xrotation Yrotation
    JOINT spine1
    {
      OFFSET 0 23.15396 4.99043
      CHANNELS 3 Zrotation Xrotation Yrotation
      JOINT spine2
      {
        OFFSET 0 20.79997 -5.064912
        CHANNELS 3 Zrotation Xrotation Yrotation
        JOINT neck
        {
          OFFSET 0 14.38658 9.616178
          CHANNELS 3 Zrotation Xrotation Yrotation
          End Site
          {
            OFFSET 0 20 0
          }
        }
      }
      JOINT right_manubrium
      {
        OFFSET -5.722621 16.35077 3.967754
        CHANNELS 3 Zrotation Xrotation Yrotation
        JOINT right_clavicle
        {
          OFFSET -13.16364 1.694482 -4.693211
          CHANNELS 3 Zrotation Xrotation Yrotation
          JOINT right_humerus
          {
            OFFSET -28.5034 -0.3100689 -2.792744
            CHANNELS 3 Zrotation Xrotation Yrotation
            JOINT right_radius
            {
              OFFSET -25.15693 0.02248979 -1.271978
              CHANNELS 3 Zrotation Xrotation Yrotation
              End Site
              {
                OFFSET -15 0 0
              }
            }
          }
        }
      }
      JOINT left_manubrium
      {
        OFFSET 5.722621 16.35077 3.967754
        CHANNELS 3 Zrotation Xrotation Yrotation
        JOINT left_clavicle
        {
          OFFSET 13.16364 1.694482 -4.693211
          CHANNELS 3 Zrotation Xrotation Yrotation
          JOINT left_humerus
          {
            OFFSET 29.39168 -1.063119 -2.237045
            CHANNELS 3 Zrotation Xrotation Yrotation
            JOINT left_radius
            {
              OFFSET 24.59957 -0.9528479 0.9047498
              CHANNELS 3 Zrotation Xrotation Yrotation
              End Site
              {
                OFFSET 15 -0 -0
              }
            }
          }
        }
      }
    }
  }
}
MOTION
Frames: 19
Frame Time: 0.0416666666667
0 103.5113 0 0.3499517 0.831166 -0.1005993 3.332477 -15.86627 8.433516 -0 34.93477 -0 -5.461974 -16.62622 -2.344128 -6.539029 6.82306 -20.17766 -0 7.245914 -0 8.481435 -16.12931 25.62398 -3.115349 -5.59355 5.444735 2.46929 10.56164 -8.456862 1.015318 21.4185 6.859286 3.091905 -24.65106 9.283299 7.568069 -19.48115 11.86412 83.31931 33.78946 -18.4967 -0 0 17.15371 -9.75483 11.61522 4.522357 8.658118 -22.33116 0.8141593 -94.1881 20.07154 20.61738 0 0 -11.36058 16.49638 18.23085 -5.036802
0.3154218 104.4041 1.930639 0.06016715 1.058734 -0.1709231 4.041044 -18.29842 8.453125 -0 33.62733 -0 -5.69115 -15.30589 -2.53152 -6.350186 7.89025 -20.1267 -0 7.078174 -0 8.104172 -17.39036 25.51634 -3.055293 -5.098269 5.249476 2.655765 10.34002 -8.581729 1.083366 21.16112 6.891778 3.154961 -25.12389 9.366924 7.151716 -19.5143 11.80536 83.96994 33.90212 -19.0222 -0 0 16.83051 -9.514649 11.06682 4.366077 8.638694 -22.27208 0.8276825 -93.90053 20.4567 20.60163 0 0 -12.53324 15.71508 18.16765 -4.265678
0.6349427 105.1903 4.332105 -0.5351236 2.207922 -0.1762468 5.655491 -23.44156 7.964117 -0 29.77552 -0 -5.438719 -11.7454 -1.767904 -6.103096 8.975122 -19.65777 -0 8.185861 -0 9.434498 -18.33038 25.298 -3.240109 -4.083173 4.666613 3.590878 10.23078 -8.958194 1.000545 20.32972 7.464667 3.604716 -26.45292 9.742429 7.000363 -19.22964 12.20411 83.99843 34.77109 -19.34791 -0 0 15.96546 -9.531573 10.79434 4.955329 8.646325 -21.7057 1.040948 -93.12303 19.04449 19.71393 0 0 -13.53384 17.1043 16.14457 -6.674472
0.947054 105.8872 7.018898 -0.723727 2.616895 -0.1253141 6.322596 -25.98759 7.695224 -0 27.63955 -0 -5.361416 -9.947413 -1.368041 -6.116165 9.899646 -19.35797 -0 8.746323 -0 10.00417 -18.81748 25.18181 -3.251702 -3.415762 4.436747 3.903291 10.20766 -9.032931 0.9760564 20.00681 7.801457 3.786805 -27.07335 10.03892 6.629322 -19.14715 12.27069 84.61904 35.32082 -19.74404 -0 0 15.17253 -9.242827 10.39899 5.045641 8.454546 -21.5132 0.7874938 -92.31375 18.80988 18.97971 0 0 -15.29038 17.34286 14.59581 -7.080553
1.244691 106.4807 10.2583 -1.029769 3.013634 0.05641985 7.002149 -29.13975 6.811995 -0 23.68764 -0 -5.461356 -7.252361 -0.7689116 -6.005941 11.23452 -18.32264 -0 9.869775 -0 9.456128 -19.79662 24.22546 -3.024215 -2.579534 4.117812 4.130244 10.26961 -9.143619 0.8883418 19.63371 8.290652 4.044065 -27.64234 10.34622 5.880385 -18.91568 12.28336 85.87422 35.34997 -20.68822 -0 0 13.75385 -9.353364 10.04565 5.076456 8.477744 -21.86392 0.3319004 -91.01737 18.50688 17.57062 0 0 -18.28687 17.5336 12.7245 -7.483723
1.525574 106.9912 14.03871 -1.287907 3.264839 0.357478 7.445972 -31.31791 5.962827 -0 20.06834 -0 -5.680023 -5.079406 -0.31384 -5.881926 12.41607 -17.18941 -0 11.0931 -0 8.226821 -20.55144 22.9681 -2.65578 -1.988589 3.885834 4.150561 10.34822 -9.209426 0.8034885 19.37667 8.662367 4.220185 -27.93188 10.53738 5.103972 -18.69239 12.20969 87.24987 35.08519 -21.72867 -0 0 12.43317 -9.55325 9.801316 4.976089 8.563442 -22.44761 -0.134167 -89.85929 18.40487 16.29085 0 0 -21.19188 17.44404 11.31486 -7.473629
1.79283 107.4191 18.43229 -1.414006 3.201408 0.7701886 7.556321 -32.5404 4.856219 -0 16.53462 -0 -6.00775 -3.05842 0.07965387 -5.838057 13.59569 -15.79401 -0 12.49651 -0 6.668079 -20.76223 21.43042 -2.123625 -1.542585 3.727782 3.917007 10.52522 -9.149389 0.6972681 19.29278 8.966188 4.276364 -27.91865 10.63597 4.021191 -18.56311 12.07292 89.16704 34.39034 -22.94304 -0 0 10.83263 -9.995257 9.512117 4.932627 8.551153 -23.30434 -0.8810572 -88.41427 18.28336 14.79782 0 0 -24.87893 17.16886 9.887356 -7.103405
2.048272 107.7469 23.44889 -1.376001 2.614879 1.244704 7.258776 -32.50547 3.426169 -0 13.48659 -0 -6.52986 -1.24328 0.2501232 -5.82264 14.66727 -14.16121 -0 13.98564 -0 4.954287 -20.37625 19.73499 -1.487776 -1.374038 3.617966 3.444067 10.78985 -8.968833 0.6020828 19.47968 9.028855 4.099146 -27.49666 10.51887 2.578503 -18.60689 11.88649 91.47738 32.8384 -24.14397 -0 0 9.092863 -10.99701 9.177234 5.127686 8.396779 -24.41208 -1.863613 -86.82354 17.96652 13.23442 0 0 -28.82634 16.61921 8.943727 -6.372695
2.273245 107.9682 29.10188 -1.201013 1.354532 1.705884 6.667733 -31.29596 1.617276 -0 10.81743 -0 -7.442336 0.6370863 0.06791447 -5.741779 15.72514 -12.19194 -0 16.03099 -0 3.117955 -19.52101 17.83474 -0.7776253 -1.528258 3.480757 2.801601 11.11087 -8.714684 0.5821182 19.99799 8.671323 3.60148 -26.63201 10.09152 0.6564388 -18.81752 11.62406 94.099 29.99426 -25.21377 -0 0 7.220547 -12.81227 8.759849 5.66656 8.015151 -25.738 -3.077883 -85.18267 17.37993 11.65195 0 0 -32.5734 15.60943 8.897572 -5.191985
2.432777 108.1797 35.32884 -0.9801184 -0.4686447 2.059968 6.095195 -29.12855 -0.2620963 -0 8.830803 -0 -8.794563 2.532008 -0.4709275 -5.534522 16.59051 -10.10756 -0 19.51583 -0 1.447472 -18.35315 15.97389 -0.09078803 -1.99314 3.304714 2.167136 11.4705 -8.492535 0.7026454 20.77759 7.862083 2.880569 -25.46328 9.388753 -1.463822 -19.08162 11.31734 96.52803 26.07274 -25.93727 -0 0 5.480519 -15.25831 8.368068 6.448003 7.407885 -27.01919 -4.343569 -83.90797 16.62369 10.39098 0 0 -35.00735 14.26258 9.979349 -3.748064
2.495402 108.5924 41.99882 -0.8209138 -2.465207 2.227273 5.858021 -26.43314 -1.738646 -0 7.821582 -0 -10.36687 4.146729 -1.212563 -5.22874 16.95001 -8.286245 -0 25.05205 -0 0.2696639 -16.86772 14.47754 0.5280193 -2.617173 3.172067 1.674487 11.91149 -8.35839 0.956186 21.58984 6.835986 2.173574 -24.28424 8.611319 -3.343588 -19.3135 11.04951 98.41361 21.98749 -26.30843 -0 0 4.130554 -17.74011 8.15213 7.256995 6.631534 -27.98365 -5.508999 -83.26163 15.92553 9.794283 0 0 -35.76545 12.83905 11.69727 -2.196355
2.452169 109.428 48.91226 -0.7922849 -4.179472 2.171671 6.053503 -23.57988 -2.462647 -0 7.880599 -0 -11.73522 5.041036 -1.908877 -4.868054 16.38601 -7.061914 -0 32.28978 -0 -0.2728315 -15.04226 13.62156 1.053992 -3.188017 3.201329 1.370699 12.48442 -8.317206 1.243213 22.17898 5.959291 1.713847 -23.36771 7.994382 -4.577249 -19.49601 10.93168 99.52366 18.83117 -26.4428 -0 0 3.437394 -19.62605 8.259391 7.84181 5.878876 -28.4768 -6.390193 -83.3012 15.39382 10.03132 0 0 -35.03787 11.85283 13.26146 -1.036989
2.31212 110.7694 55.87288 -0.8470342 -5.470252 1.907448 6.495862 -20.74076 -2.481295 -0 8.65211 -0 -12.67824 5.11327 -2.462862 -4.491777 14.85374 -6.42441 -0 39.94393 -0 -0.2563648 -12.98182 13.39368 1.467975 -3.564516 3.428881 1.189379 13.15971 -8.304495 1.487787 22.48676 5.364952 1.500572 -22.76372 7.608521 -5.202605 -19.71394 10.97226 100.0128 16.97882 -26.42172 -0 0 3.402291 -20.73669 8.617768 8.159491 5.224206 -28.55744 -6.988417 -83.74943 15.00074 10.93072 0 0 -33.57592 11.43375 14.22503 -0.4191833
2.088885 112.5605 62.7407 -0.9059513 -6.460793 1.475272 6.949723 -17.93751 -2.101588 -0 9.634167 -0 -13.23732 4.604418 -2.879779 -4.115191 12.59905 -6.148891 -0 46.84646 -0 0.12794 -10.91425 13.5983 1.751913 -3.725726 3.800307 1.048648 13.86631 -8.25799 1.681573 22.61149 4.973104 1.424376 -22.3483 7.381014 -5.471982 -20.02242 11.11385 100.132 16.11373 -26.2311 -0 0 3.851727 -21.29481 9.086428 8.320667 4.66005 -28.37589 -7.418738 -84.33778 14.7037 12.20567 0 0 -31.92311 11.39562 14.67152 -0.176226
1.794079 114.6897 69.43315 -0.9339067 -7.292661 0.9145693 7.304816 -15.1509 -1.567284 -0 10.50376 -0 -13.53136 3.782944 -3.19657 -3.72775 9.888433 -6.030586 -0 52.43537 -0 0.7113571 -8.995622 14.04651 1.913946 -3.719417 4.248078 0.9021982 14.55517 -8.152846 1.842062 22.64511 4.671705 1.394299 -22.00225 7.222317 -5.588161 -20.44059 11.30156 100.0528 15.81111 -25.84404 -0 0 4.636794 -21.56606 9.587451 8.44699 4.15785 -28.05367 -7.781089 -84.94263 14.48301 13.68047 0 0 -30.30347 11.49354 14.83019 -0.06106886
1.439155 117.036 75.90137 -0.9379395 -8.031062 0.2562755 7.552657 -12.33853 -0.9908284 -0 11.10964 -0 -13.63154 2.793673 -3.425911 -3.29665 6.863567 -5.949246 -0 56.49664 -0 1.364587 -7.294017 14.6301 1.975059 -3.598468 4.72886 0.7388277 15.20735 -7.995876 1.975258 22.62321 4.400838 1.370344 -21.66538 7.078118 -5.631661 -20.9737 11.51248 99.82259 15.81887 -25.24384 -0 0 5.716625 -21.70807 10.12269 8.596108 3.722455 -27.65619 -8.102178 -85.56229 14.31797 15.30528 0 0 -28.69894 11.61984 14.87307 0.009105997
1.038182 119.4771 82.1182 -0.9378699 -8.701975 -0.477118 7.716924 -9.453859 -0.4177204 -0 11.39743 -0 -13.579 1.703605 -3.580622 -2.782598 3.610206 -5.832309 -0 58.89673 -0 2.009865 -5.826196 15.28629 1.959181 -3.410248 5.213869 0.5610732 15.81321 -7.800408 2.082699 22.55363 4.121732 1.326892 -21.31114 6.913658 -5.633627 -21.63631 11.73575 99.44568 15.98657 -24.4092 -0 0 7.102299 -21.81506 10.71598 8.811469 3.35413 -27.21363 -8.386048 -86.22697 14.18603 17.08932 0 0 -27.03748 11.70156 14.91251 0.08497252
0.6098613 121.8904 88.07319 -0.9577967 -9.31604 -1.271991 7.82643 -6.449542 0.1224534 -0 11.36802 -0 -13.39978 0.540647 -3.674921 -2.143036 0.1955227 -5.629587 -0 59.49991 -0 2.605646 -4.584694 15.96683 1.890744 -3.201458 5.67826 0.3778299 16.36697 -7.578009 2.165613 22.43409 3.803001 1.244151 -20.92291 6.700762 -5.59878 -22.45006 11.96652 98.89963 16.19142 -23.3048 -0 0 8.828803 -21.96544 11.406 9.150219 3.044577 -26.73807 -8.637475 -86.98292 14.06671 19.07041 0 0 -25.22664 11.6613 15.03995 0.2329034
0.1798514 124.1579 93.77179 -1.025666 -9.859854 -2.123274 7.908411 -3.288051 0.6108284 -0 11.07987 -0 -13.10543 -0.7083477 -3.721591 -1.336894 -3.316914 -5.308847 -0 58.15532 -0 3.133602 -3.542133 16.61675 1.796013 -3.020822 6.100851 0.2042682 16.86169 -7.338936 2.222408 22.24973 3.422806 1.106954 -20.49851 6.418277 -5.50361 -23.44243 12.20418 98.1386 16.33734 -21.8875 -0 0 10.94899 -22.22301 12.24404 9.68647 2.777813 -26.22768 -8.8567 -87.88447 13.93838 21.30605 0 0 -23.17738 11.4084 15.31617 0.5454176
